<mxfile host="Electron" agent="Mozilla/5.0 (Macintosh; Intel Mac OS X 10_15_7) AppleWebKit/537.36 (KHTML, like Gecko) draw.io/24.7.8 Chrome/128.0.6613.36 Electron/32.0.1 Safari/537.36" version="24.7.8">
  <diagram id="nXEJ3-eVCOUEOjxJEupY" name="Page-1">
    <mxGraphModel dx="2265" dy="1616" grid="1" gridSize="10" guides="1" tooltips="1" connect="1" arrows="1" fold="1" page="0" pageScale="1" pageWidth="850" pageHeight="1100" background="#ffffff" math="0" shadow="0">
      <root>
        <mxCell id="0" />
        <mxCell id="1" parent="0" />
        <mxCell id="2" value="Simulation" style="swimlane;fontStyle=1;align=center;verticalAlign=top;childLayout=stackLayout;horizontal=1;startSize=26;horizontalStack=0;resizeParent=1;resizeParentMax=0;resizeLast=0;collapsible=1;marginBottom=0;rounded=1;fontFamily=Comic Sans MS;fillColor=#d5e8d4;strokeColor=#82b366;sketch=1;curveFitting=1;jiggle=2;" parent="1" vertex="1">
          <mxGeometry x="320" y="40" width="320" height="240" as="geometry" />
        </mxCell>
        <mxCell id="3" value="+ domain_manager: DomainManager;&#xa;+ mpi_manager: MPIManager;&#xa;+ scene: Scene;&#xa;+ dem_solver: DEMSolver;&#xa;+ modifier_ manager: ModifierManager;&#xa;+ mech_time: double;&#xa;+ mech_cycles: mech_cycles;&#xa;+ enable_logging: bool;" style="text;align=left;verticalAlign=top;spacingLeft=4;spacingRight=4;overflow=hidden;rotatable=0;points=[[0,0.5],[1,0.5]];portConstraint=eastwest;rounded=1;fontFamily=Comic Sans MS;sketch=1;curveFitting=1;jiggle=2;" parent="2" vertex="1">
          <mxGeometry y="26" width="320" height="124" as="geometry" />
        </mxCell>
        <mxCell id="4" value="" style="line;strokeWidth=1;fillColor=#d5e8d4;align=left;verticalAlign=middle;spacingTop=-1;spacingLeft=3;spacingRight=3;rotatable=0;labelPosition=right;points=[];portConstraint=eastwest;strokeColor=#82b366;rounded=1;fontFamily=Comic Sans MS;sketch=1;curveFitting=1;jiggle=2;" parent="2" vertex="1">
          <mxGeometry y="150" width="320" height="8" as="geometry" />
        </mxCell>
        <mxCell id="5" value="+ Simulation(): void;&#xa;+ Init(): void;&#xa;+ AutoReadRestart(path: string, mech_cyc:int): void; &#xa;+ SetTimeAndCycles(t: double, cycs: int);&#xa;+ Run(time: double): void" style="text;align=left;verticalAlign=top;spacingLeft=4;spacingRight=4;overflow=hidden;rotatable=0;points=[[0,0.5],[1,0.5]];portConstraint=eastwest;rounded=1;fontFamily=Comic Sans MS;sketch=1;curveFitting=1;jiggle=2;" parent="2" vertex="1">
          <mxGeometry y="158" width="320" height="82" as="geometry" />
        </mxCell>
        <mxCell id="18" value="Scene" style="swimlane;fontStyle=1;align=center;verticalAlign=top;childLayout=stackLayout;horizontal=1;startSize=26;horizontalStack=0;resizeParent=1;resizeParentMax=0;resizeLast=0;collapsible=1;marginBottom=0;rounded=1;fontFamily=Comic Sans MS;fillColor=#fff2cc;strokeColor=#d6b656;sketch=1;curveFitting=1;jiggle=2;" parent="1" vertex="1">
          <mxGeometry x="330" y="290" width="260" height="370" as="geometry" />
        </mxCell>
        <mxCell id="19" value="+ gravity_coef: Vec3D&#xa;+ wall_list&#xa;+ contact model map&#xa;+ bond model table&#xa;+ collision_model table&#xa;+ particle list&#xa;# particle_ghost list &#xa;# particle_proxy_list &#xa;# wall ghost list&#xa;# particle_map&#xa;# shape_map&#xa;# local_shape_list&#xa;......" style="text;strokeColor=none;fillColor=none;align=left;verticalAlign=top;spacingLeft=4;spacingRight=4;overflow=hidden;rotatable=0;points=[[0,0.5],[1,0.5]];portConstraint=eastwest;rounded=1;fontFamily=Comic Sans MS;sketch=1;curveFitting=1;jiggle=2;" parent="18" vertex="1">
          <mxGeometry y="26" width="260" height="194" as="geometry" />
        </mxCell>
        <mxCell id="20" value="" style="line;strokeWidth=1;fillColor=none;align=left;verticalAlign=middle;spacingTop=-1;spacingLeft=3;spacingRight=3;rotatable=0;labelPosition=right;points=[];portConstraint=eastwest;strokeColor=inherit;rounded=1;fontFamily=Comic Sans MS;sketch=1;curveFitting=1;jiggle=2;" parent="18" vertex="1">
          <mxGeometry y="220" width="260" height="8" as="geometry" />
        </mxCell>
        <mxCell id="21" value="+ Scene() declaration&#xa;+ Init(Simulation * const) &#xa;+ InsertShape(const Shape *const) &#xa;+ InsertShape(const VecXT&lt;Shape*&gt;&amp;)&#xa;+ InsertParticleLocal(const Particle * const) &#xa;+ InsertParticle(const Particle *const) &#xa;+ InsertParticle(Particle const &amp;)&#xa;+ InsertParticle(const VecXT&lt;Particle*&gt;&amp;) &#xa;......" style="text;strokeColor=none;fillColor=none;align=left;verticalAlign=top;spacingLeft=4;spacingRight=4;overflow=hidden;rotatable=0;points=[[0,0.5],[1,0.5]];portConstraint=eastwest;rounded=1;fontFamily=Comic Sans MS;sketch=1;curveFitting=1;jiggle=2;" parent="18" vertex="1">
          <mxGeometry y="228" width="260" height="142" as="geometry" />
        </mxCell>
        <mxCell id="22" value="DEMSolver" style="swimlane;fontStyle=1;align=center;verticalAlign=top;childLayout=stackLayout;horizontal=1;startSize=26;horizontalStack=0;resizeParent=1;resizeParentMax=0;resizeLast=0;collapsible=1;marginBottom=0;rounded=1;fontFamily=Comic Sans MS;fillColor=#fff2cc;strokeColor=#d6b656;sketch=1;curveFitting=1;jiggle=2;" parent="1" vertex="1">
          <mxGeometry y="20" width="280" height="250" as="geometry" />
        </mxCell>
        <mxCell id="23" value="+ timestep: double&#xa;+ dem_profiler: DEMProfiler&#xa;+ contact_solver_factory: ContactSolverFactory" style="text;align=left;verticalAlign=top;spacingLeft=4;spacingRight=4;overflow=hidden;rotatable=0;points=[[0,0.5],[1,0.5]];portConstraint=eastwest;rounded=1;fontFamily=Comic Sans MS;sketch=1;curveFitting=1;jiggle=2;" parent="22" vertex="1">
          <mxGeometry y="26" width="280" height="54" as="geometry" />
        </mxCell>
        <mxCell id="24" value="" style="line;strokeWidth=1;fillColor=#fff2cc;align=left;verticalAlign=middle;spacingTop=-1;spacingLeft=3;spacingRight=3;rotatable=0;labelPosition=right;points=[];portConstraint=eastwest;strokeColor=#d6b656;rounded=1;fontFamily=Comic Sans MS;sketch=1;curveFitting=1;jiggle=2;" parent="22" vertex="1">
          <mxGeometry y="80" width="280" height="8" as="geometry" />
        </mxCell>
        <mxCell id="25" value="+ Init(Simulation *)&#xa;+ UpdatePreModifiers():void;&#xa;+ UpdateLinkedList(): void;&#xa;+ UpdateContacts(): void;&#xa;+ UpdateParticleContactForce(): void;&#xa;+ UpdateWallContactForce(): void;&#xa;+ UpdateParticleMotion(): void;&#xa;+ UpdateWallMotion(): void;&#xa;+ UpdatePostModifiers(): void;&#xa;+ Cycle(num_cycles: int): void;&#xa;+ Solve(time: double): void" style="text;align=left;verticalAlign=top;spacingLeft=4;spacingRight=4;overflow=hidden;rotatable=0;points=[[0,0.5],[1,0.5]];portConstraint=eastwest;rounded=1;fontFamily=Comic Sans MS;sketch=1;curveFitting=1;jiggle=2;" parent="22" vertex="1">
          <mxGeometry y="88" width="280" height="162" as="geometry" />
        </mxCell>
        <mxCell id="26" value="Wall" style="swimlane;fontStyle=1;align=center;verticalAlign=top;childLayout=stackLayout;horizontal=1;startSize=26;horizontalStack=0;resizeParent=1;resizeParentMax=0;resizeLast=0;collapsible=1;marginBottom=0;rounded=1;fontFamily=Comic Sans MS;fillColor=#f8cecc;strokeColor=#b85450;sketch=1;curveFitting=1;jiggle=2;" parent="1" vertex="1">
          <mxGeometry x="540" y="730" width="160" height="86" as="geometry" />
        </mxCell>
        <mxCell id="27" value="+ field: type" style="text;strokeColor=none;fillColor=none;align=left;verticalAlign=top;spacingLeft=4;spacingRight=4;overflow=hidden;rotatable=0;points=[[0,0.5],[1,0.5]];portConstraint=eastwest;rounded=1;fontFamily=Comic Sans MS;sketch=1;curveFitting=1;jiggle=2;" parent="26" vertex="1">
          <mxGeometry y="26" width="160" height="26" as="geometry" />
        </mxCell>
        <mxCell id="28" value="" style="line;strokeWidth=1;fillColor=none;align=left;verticalAlign=middle;spacingTop=-1;spacingLeft=3;spacingRight=3;rotatable=0;labelPosition=right;points=[];portConstraint=eastwest;strokeColor=inherit;rounded=1;fontFamily=Comic Sans MS;sketch=1;curveFitting=1;jiggle=2;" parent="26" vertex="1">
          <mxGeometry y="52" width="160" height="8" as="geometry" />
        </mxCell>
        <mxCell id="29" value="+ method(type): type" style="text;strokeColor=none;fillColor=none;align=left;verticalAlign=top;spacingLeft=4;spacingRight=4;overflow=hidden;rotatable=0;points=[[0,0.5],[1,0.5]];portConstraint=eastwest;rounded=1;fontFamily=Comic Sans MS;sketch=1;curveFitting=1;jiggle=2;" parent="26" vertex="1">
          <mxGeometry y="60" width="160" height="26" as="geometry" />
        </mxCell>
        <mxCell id="30" value="Particle" style="swimlane;fontStyle=1;align=center;verticalAlign=top;childLayout=stackLayout;horizontal=1;startSize=26;horizontalStack=0;resizeParent=1;resizeParentMax=0;resizeLast=0;collapsible=1;marginBottom=0;rounded=1;fontFamily=Comic Sans MS;fillColor=#f8cecc;strokeColor=#b85450;sketch=1;curveFitting=1;jiggle=2;" parent="1" vertex="1">
          <mxGeometry x="120" y="570" width="160" height="86" as="geometry" />
        </mxCell>
        <mxCell id="31" value="+ field: type" style="text;strokeColor=none;fillColor=none;align=left;verticalAlign=top;spacingLeft=4;spacingRight=4;overflow=hidden;rotatable=0;points=[[0,0.5],[1,0.5]];portConstraint=eastwest;rounded=1;fontFamily=Comic Sans MS;sketch=1;curveFitting=1;jiggle=2;" parent="30" vertex="1">
          <mxGeometry y="26" width="160" height="26" as="geometry" />
        </mxCell>
        <mxCell id="32" value="" style="line;strokeWidth=1;fillColor=none;align=left;verticalAlign=middle;spacingTop=-1;spacingLeft=3;spacingRight=3;rotatable=0;labelPosition=right;points=[];portConstraint=eastwest;strokeColor=inherit;rounded=1;fontFamily=Comic Sans MS;sketch=1;curveFitting=1;jiggle=2;" parent="30" vertex="1">
          <mxGeometry y="52" width="160" height="8" as="geometry" />
        </mxCell>
        <mxCell id="33" value="+ method(type): type" style="text;strokeColor=none;fillColor=none;align=left;verticalAlign=top;spacingLeft=4;spacingRight=4;overflow=hidden;rotatable=0;points=[[0,0.5],[1,0.5]];portConstraint=eastwest;rounded=1;fontFamily=Comic Sans MS;sketch=1;curveFitting=1;jiggle=2;" parent="30" vertex="1">
          <mxGeometry y="60" width="160" height="26" as="geometry" />
        </mxCell>
        <mxCell id="34" value="ModifiedManager" style="swimlane;fontStyle=1;align=center;verticalAlign=top;childLayout=stackLayout;horizontal=1;startSize=26;horizontalStack=0;resizeParent=1;resizeParentMax=0;resizeLast=0;collapsible=1;marginBottom=0;rounded=1;fontFamily=Comic Sans MS;sketch=1;curveFitting=1;jiggle=2;" parent="1" vertex="1">
          <mxGeometry x="390" y="-80" width="160" height="86" as="geometry" />
        </mxCell>
        <mxCell id="35" value="+ field: type" style="text;strokeColor=none;fillColor=none;align=left;verticalAlign=top;spacingLeft=4;spacingRight=4;overflow=hidden;rotatable=0;points=[[0,0.5],[1,0.5]];portConstraint=eastwest;rounded=1;fontFamily=Comic Sans MS;sketch=1;curveFitting=1;jiggle=2;" parent="34" vertex="1">
          <mxGeometry y="26" width="160" height="26" as="geometry" />
        </mxCell>
        <mxCell id="36" value="" style="line;strokeWidth=1;fillColor=none;align=left;verticalAlign=middle;spacingTop=-1;spacingLeft=3;spacingRight=3;rotatable=0;labelPosition=right;points=[];portConstraint=eastwest;strokeColor=inherit;rounded=1;fontFamily=Comic Sans MS;sketch=1;curveFitting=1;jiggle=2;" parent="34" vertex="1">
          <mxGeometry y="52" width="160" height="8" as="geometry" />
        </mxCell>
        <mxCell id="37" value="+ method(type): type" style="text;strokeColor=none;fillColor=none;align=left;verticalAlign=top;spacingLeft=4;spacingRight=4;overflow=hidden;rotatable=0;points=[[0,0.5],[1,0.5]];portConstraint=eastwest;rounded=1;fontFamily=Comic Sans MS;sketch=1;curveFitting=1;jiggle=2;" parent="34" vertex="1">
          <mxGeometry y="60" width="160" height="26" as="geometry" />
        </mxCell>
        <mxCell id="39" value="MPIManager" style="swimlane;fontStyle=1;align=center;verticalAlign=top;childLayout=stackLayout;horizontal=1;startSize=26;horizontalStack=0;resizeParent=1;resizeParentMax=0;resizeLast=0;collapsible=1;marginBottom=0;rounded=1;fontFamily=Comic Sans MS;sketch=1;curveFitting=1;jiggle=2;" parent="1" vertex="1">
          <mxGeometry x="670" y="-50" width="160" height="86" as="geometry" />
        </mxCell>
        <mxCell id="40" value="+ field: type" style="text;strokeColor=none;fillColor=none;align=left;verticalAlign=top;spacingLeft=4;spacingRight=4;overflow=hidden;rotatable=0;points=[[0,0.5],[1,0.5]];portConstraint=eastwest;rounded=1;fontFamily=Comic Sans MS;sketch=1;curveFitting=1;jiggle=2;" parent="39" vertex="1">
          <mxGeometry y="26" width="160" height="26" as="geometry" />
        </mxCell>
        <mxCell id="41" value="" style="line;strokeWidth=1;fillColor=none;align=left;verticalAlign=middle;spacingTop=-1;spacingLeft=3;spacingRight=3;rotatable=0;labelPosition=right;points=[];portConstraint=eastwest;strokeColor=inherit;rounded=1;fontFamily=Comic Sans MS;sketch=1;curveFitting=1;jiggle=2;" parent="39" vertex="1">
          <mxGeometry y="52" width="160" height="8" as="geometry" />
        </mxCell>
        <mxCell id="42" value="+ method(type): type" style="text;strokeColor=none;fillColor=none;align=left;verticalAlign=top;spacingLeft=4;spacingRight=4;overflow=hidden;rotatable=0;points=[[0,0.5],[1,0.5]];portConstraint=eastwest;rounded=1;fontFamily=Comic Sans MS;sketch=1;curveFitting=1;jiggle=2;" parent="39" vertex="1">
          <mxGeometry y="60" width="160" height="26" as="geometry" />
        </mxCell>
        <mxCell id="43" value="DomainManager" style="swimlane;fontStyle=1;align=center;verticalAlign=top;childLayout=stackLayout;horizontal=1;startSize=26;horizontalStack=0;resizeParent=1;resizeParentMax=0;resizeLast=0;collapsible=1;marginBottom=0;rounded=1;fontFamily=Comic Sans MS;fillColor=#fff2cc;strokeColor=#d6b656;sketch=1;curveFitting=1;jiggle=2;" parent="1" vertex="1">
          <mxGeometry x="680" y="86" width="350" height="310" as="geometry" />
        </mxCell>
        <mxCell id="44" value="- bound min: Vec3d;&#xa;- bound max: Vec3d;&#xa;- num div: Vec3i;&#xa;- sim: simulation;&#xa;- domain list: VecXT&lt;Domain&gt;;&#xa;- self_domain: Domain;" style="text;strokeColor=none;fillColor=none;align=left;verticalAlign=top;spacingLeft=4;spacingRight=4;overflow=hidden;rotatable=0;points=[[0,0.5],[1,0.5]];portConstraint=eastwest;rounded=1;fontFamily=Comic Sans MS;sketch=1;curveFitting=1;jiggle=2;" parent="43" vertex="1">
          <mxGeometry y="26" width="350" height="94" as="geometry" />
        </mxCell>
        <mxCell id="45" value="" style="line;strokeWidth=1;fillColor=none;align=left;verticalAlign=middle;spacingTop=-1;spacingLeft=3;spacingRight=3;rotatable=0;labelPosition=right;points=[];portConstraint=eastwest;strokeColor=inherit;rounded=1;fontFamily=Comic Sans MS;sketch=1;curveFitting=1;jiggle=2;" parent="43" vertex="1">
          <mxGeometry y="120" width="350" height="8" as="geometry" />
        </mxCell>
        <mxCell id="46" value="- GetBound(): tuple&lt;vec3d, vec3d&gt;; &#xa;- GetDecomposition(): void;&#xa;- Init(s: Simulation* ): void;&#xa;- Init(): void;&#xa;- SetBound(bmin_x: double, bmin_y: double, bmin_z: double,&#xa;    bmax_x: double, bmax_y: double, bmax_z: double): void;&#xa;- SetDecomposition(num_div_x: int, num_div_x: int, &#xa;   num_div_x: int): void&#xa;- SetCellSpacing(s_x: double, s_y: double, s_z: double): void;&#xa;- GetGhostSubDomains(): void;&#xa;- GetSelfGhostSubDomain(): void;&#xa;- GetSelfSubDomain(): void;" style="text;strokeColor=none;fillColor=none;align=left;verticalAlign=top;spacingLeft=4;spacingRight=4;overflow=hidden;rotatable=0;points=[[0,0.5],[1,0.5]];portConstraint=eastwest;rounded=1;fontFamily=Comic Sans MS;sketch=1;curveFitting=1;jiggle=2;" parent="43" vertex="1">
          <mxGeometry y="128" width="350" height="182" as="geometry" />
        </mxCell>
        <mxCell id="51" value="ContactSolverFactory" style="swimlane;fontStyle=1;align=center;verticalAlign=top;childLayout=stackLayout;horizontal=1;startSize=26;horizontalStack=0;resizeParent=1;resizeParentMax=0;resizeLast=0;collapsible=1;marginBottom=0;rounded=1;fontFamily=Comic Sans MS;sketch=1;curveFitting=1;jiggle=2;" parent="1" vertex="1">
          <mxGeometry x="-50" y="300" width="160" height="86" as="geometry" />
        </mxCell>
        <mxCell id="52" value="+ field: type" style="text;strokeColor=none;fillColor=none;align=left;verticalAlign=top;spacingLeft=4;spacingRight=4;overflow=hidden;rotatable=0;points=[[0,0.5],[1,0.5]];portConstraint=eastwest;rounded=1;fontFamily=Comic Sans MS;sketch=1;curveFitting=1;jiggle=2;" parent="51" vertex="1">
          <mxGeometry y="26" width="160" height="26" as="geometry" />
        </mxCell>
        <mxCell id="53" value="" style="line;strokeWidth=1;fillColor=none;align=left;verticalAlign=middle;spacingTop=-1;spacingLeft=3;spacingRight=3;rotatable=0;labelPosition=right;points=[];portConstraint=eastwest;strokeColor=inherit;rounded=1;fontFamily=Comic Sans MS;sketch=1;curveFitting=1;jiggle=2;" parent="51" vertex="1">
          <mxGeometry y="52" width="160" height="8" as="geometry" />
        </mxCell>
        <mxCell id="54" value="+ method(type): type" style="text;strokeColor=none;fillColor=none;align=left;verticalAlign=top;spacingLeft=4;spacingRight=4;overflow=hidden;rotatable=0;points=[[0,0.5],[1,0.5]];portConstraint=eastwest;rounded=1;fontFamily=Comic Sans MS;sketch=1;curveFitting=1;jiggle=2;" parent="51" vertex="1">
          <mxGeometry y="60" width="160" height="26" as="geometry" />
        </mxCell>
        <mxCell id="rqYyNco-jMDj5h5XFTRR-55" value="Shape" style="swimlane;fontStyle=1;align=center;verticalAlign=top;childLayout=stackLayout;horizontal=1;startSize=26;horizontalStack=0;resizeParent=1;resizeParentMax=0;resizeLast=0;collapsible=1;marginBottom=0;fillColor=#f8cecc;strokeColor=#b85450;rounded=1;fontFamily=Comic Sans MS;sketch=1;curveFitting=1;jiggle=2;" vertex="1" parent="1">
          <mxGeometry x="-80" y="570" width="180" height="270" as="geometry" />
        </mxCell>
        <mxCell id="rqYyNco-jMDj5h5XFTRR-56" value=" - id: int&#xa; # label: string&#xa; # size: double&#xa; # volume: double&#xa; # surface_nodes:&#xa;VecXT&lt;Vec3d&gt;&#xa;……&#xa;&#xa;" style="text;strokeColor=none;fillColor=none;align=left;verticalAlign=top;spacingLeft=4;spacingRight=4;overflow=hidden;rotatable=0;points=[[0,0.5],[1,0.5]];portConstraint=eastwest;rounded=1;fontFamily=Comic Sans MS;sketch=1;curveFitting=1;jiggle=2;" vertex="1" parent="rqYyNco-jMDj5h5XFTRR-55">
          <mxGeometry y="26" width="180" height="104" as="geometry" />
        </mxCell>
        <mxCell id="rqYyNco-jMDj5h5XFTRR-57" value="" style="line;strokeWidth=1;fillColor=none;align=left;verticalAlign=middle;spacingTop=-1;spacingLeft=3;spacingRight=3;rotatable=0;labelPosition=right;points=[];portConstraint=eastwest;strokeColor=inherit;rounded=1;fontFamily=Comic Sans MS;sketch=1;curveFitting=1;jiggle=2;" vertex="1" parent="rqYyNco-jMDj5h5XFTRR-55">
          <mxGeometry y="130" width="180" height="10" as="geometry" />
        </mxCell>
        <mxCell id="rqYyNco-jMDj5h5XFTRR-58" value=" + GetSize(): double&#xa; + GetVolume(): double&#xa; + SetSize(d: double): void&#xa; + SaveAsSTL(filename:&#xa;     string):void&#xa; + SetSurfaceNodes(surf_stl:&#xa;     STLModel):void&#xa;……" style="text;strokeColor=none;fillColor=none;align=left;verticalAlign=top;spacingLeft=4;spacingRight=4;overflow=hidden;rotatable=0;points=[[0,0.5],[1,0.5]];portConstraint=eastwest;rounded=1;fontFamily=Comic Sans MS;sketch=1;curveFitting=1;jiggle=2;" vertex="1" parent="rqYyNco-jMDj5h5XFTRR-55">
          <mxGeometry y="140" width="180" height="130" as="geometry" />
        </mxCell>
      </root>
    </mxGraphModel>
  </diagram>
</mxfile>
